<svg xmlns="http://www.w3.org/2000/svg" viewBox="0 0 113.39 113.39"><defs><style>.cls-1{fill:#e6e7e8;}.cls-2{fill:#004d91;}.cls-3{fill:#105239;}.cls-4{fill:#0d3122;}</style></defs><title>Diaspora_00</title><g id="Calque_2" data-name="Calque 2"><g id="Calque_1-2" data-name="Calque 1"><g id="Diaspora"><g id="tangram_fond" data-name="tangram fond"><polygon id="triangle" class="cls-1" points="0 85.04 28.35 85.04 28.35 113.39 0 85.04"/><polygon id="triangle-2" data-name="triangle" class="cls-1" points="28.35 0 28.35 28.35 0 28.35 28.35 0"/><polygon id="triangle-3" data-name="triangle" class="cls-1" points="28.35 28.35 28.35 0 56.69 0 28.35 28.35"/><polygon id="triangle-4" data-name="triangle" class="cls-1" points="56.69 0 56.69 28.35 28.35 28.35 56.69 0"/><polygon id="triangle-5" data-name="triangle" class="cls-1" points="85.04 28.35 56.69 28.35 56.69 0 85.04 28.35"/><polygon id="triangle-6" data-name="triangle" class="cls-1" points="56.69 113.39 28.35 113.39 28.35 85.04 56.69 113.39"/><polygon id="triangle-7" data-name="triangle" class="cls-1" points="28.35 85.04 0 85.04 0 56.69 28.35 85.04"/><polygon id="triangle-8" data-name="triangle" class="cls-1" points="0 56.69 28.35 56.69 28.35 85.04 0 56.69"/><polygon id="triangle-9" data-name="triangle" class="cls-1" points="28.35 28.35 28.35 56.69 0 56.69 28.35 28.35"/><polygon id="triangle-10" data-name="triangle" class="cls-1" points="0 56.69 0 28.35 28.35 28.35 0 56.69"/><polygon id="triangle-11" data-name="triangle" class="cls-1" points="85.04 56.69 85.04 85.04 56.69 85.04 85.04 56.69"/><polygon id="triangle-12" data-name="triangle" class="cls-1" points="28.35 85.04 28.35 56.69 56.69 56.69 28.35 85.04"/><polygon id="triangle-13" data-name="triangle" class="cls-1" points="56.69 28.35 56.69 56.69 28.35 56.69 56.69 28.35"/><polygon id="triangle-14" data-name="triangle" class="cls-1" points="56.69 56.69 56.69 28.35 85.04 28.35 56.69 56.69"/><polygon id="triangle-15" data-name="triangle" class="cls-1" points="56.69 0 85.04 0 85.04 28.35 56.69 0"/><polygon id="triangle-16" data-name="triangle" class="cls-1" points="113.39 28.35 85.04 28.35 85.04 0 113.39 28.35"/><polygon id="triangle-17" data-name="triangle" class="cls-1" points="85.04 85.04 85.04 113.39 56.69 113.39 85.04 85.04"/><polygon id="triangle-18" data-name="triangle" class="cls-1" points="56.69 113.39 56.69 85.04 85.04 85.04 56.69 113.39"/><polygon id="triangle-19" data-name="triangle" class="cls-1" points="28.35 85.04 56.69 85.04 56.69 113.39 28.35 85.04"/><polygon id="triangle-20" data-name="triangle" class="cls-1" points="113.39 56.69 85.04 56.69 85.04 28.35 113.39 56.69"/><polygon id="triangle-21" data-name="triangle" class="cls-1" points="28.35 56.69 28.35 28.35 56.69 28.35 28.35 56.69"/><polygon id="triangle-22" data-name="triangle" class="cls-1" points="56.69 85.04 56.69 56.69 85.04 56.69 56.69 85.04"/><polygon id="triangle-23" data-name="triangle" class="cls-1" points="56.69 56.69 56.69 85.04 28.35 85.04 56.69 56.69"/><polygon id="triangle-24" data-name="triangle" class="cls-1" points="85.04 85.04 85.04 56.69 113.39 56.69 85.04 85.04"/><polygon id="triangle-25" data-name="triangle" class="cls-1" points="113.39 56.69 113.39 85.04 85.04 85.04 113.39 56.69"/><polygon id="triangle-26" data-name="triangle" class="cls-1" points="85.04 28.35 113.39 28.35 113.39 56.69 85.04 28.35"/><polygon id="triangle-27" data-name="triangle" class="cls-1" points="85.04 28.35 85.04 56.69 56.69 56.69 85.04 28.35"/><polygon id="triangle-28" data-name="triangle" class="cls-1" points="85.04 113.39 85.04 85.04 113.39 85.04 85.04 113.39"/></g><g id="Diaspora-2" data-name="Diaspora"><g id="outer"><polygon id="triangle-29" data-name="triangle" class="cls-2" points="36.65 20.04 56.69 0 76.74 20.04 36.65 20.04"/><polygon id="triangle-30" data-name="triangle" class="cls-2" points="113.39 28.35 85.04 28.35 85.04 0 113.39 28.35"/><polygon id="triangle-31" data-name="triangle" class="cls-2" points="113.39 56.69 113.39 85.04 85.04 85.04 113.39 56.69"/><polygon id="triangle-32" data-name="triangle" class="cls-2" points="56.69 0 85.04 0 85.04 28.35 56.69 0"/><polygon id="triangle-33" data-name="triangle" class="cls-2" points="56.69 113.39 28.35 113.39 28.35 85.04 56.69 113.39"/><polygon id="triangle-34" data-name="triangle" class="cls-2" points="28.35 28.35 28.35 0 56.69 0 28.35 28.35"/><polygon id="triangle-35" data-name="triangle" class="cls-2" points="85.04 113.39 85.04 85.04 113.39 85.04 85.04 113.39"/><polygon id="triangle-36" data-name="triangle" class="cls-2" points="76.74 93.34 56.69 113.39 36.65 93.34 76.74 93.34"/><polygon id="triangle-37" data-name="triangle" class="cls-2" points="85.04 28.35 113.39 28.35 113.39 56.69 85.04 28.35"/><polygon id="triangle-38" data-name="triangle" class="cls-2" points="85.04 85.04 85.04 113.39 56.69 113.39 85.04 85.04"/></g><g id="arrow"><polygon id="triangle-39" data-name="triangle" class="cls-3" points="28.35 28.35 56.69 28.35 56.69 56.69 28.35 28.35"/><polygon id="triangle-40" data-name="triangle" class="cls-4" points="56.69 85.04 56.69 56.69 85.04 56.69 56.69 85.04"/><polygon id="triangle-41" data-name="triangle" class="cls-3" points="85.04 56.69 56.69 56.69 56.69 28.35 85.04 56.69"/><polygon id="triangle-42" data-name="triangle" class="cls-4" points="56.69 56.69 56.69 85.04 28.35 85.04 56.69 56.69"/></g></g></g></g></g></svg>